<svg width="512" height="512" viewBox="0 0 512 512" fill="none" xmlns="http://www.w3.org/2000/svg">
<path d="M417.926 378.317L377.746 417.949C373.528 413.73 366.923 407.416 357.933 399.006C348.943 390.597 342.047 383.991 337.276 379.19C332.475 374.418 326.656 367.987 319.761 359.955C312.865 351.924 307.716 344.562 304.253 337.84C300.82 331.148 297.736 323.116 295.059 313.717C292.383 304.348 291.044 294.483 291.044 284.153H284.149V457H227.298C227.298 450.889 227.094 441.607 226.716 429.152C226.338 416.727 226.134 407.154 226.134 400.432C226.134 393.71 226.6 385.126 227.56 374.592C228.52 364.058 230.149 355.154 232.448 347.879C234.746 340.605 238.267 332.748 243.067 324.339C247.839 315.929 253.687 308.072 260.582 300.798L255.985 296.2L133.672 417.949L94.0449 378.317C98.2637 373.719 104.577 366.939 112.986 357.919C121.394 348.927 127.998 342.031 132.799 337.258C137.57 332.486 144 326.725 152.03 320.032C160.061 313.339 167.451 308.247 174.142 304.813C180.834 301.38 188.864 298.295 198.262 295.618C207.63 292.941 217.493 291.602 227.822 291.602V284.124H55V227.847C61.5172 227.847 70.8856 227.672 83.1345 227.265C95.3833 226.887 104.868 226.596 111.56 226.392C118.252 226.217 126.864 226.596 137.396 227.527C147.928 228.487 156.831 230.117 164.105 232.415C171.378 234.714 179.234 238.264 187.642 243.036C196.051 247.838 203.906 253.861 211.18 261.136L215.777 255.956L94.0449 134.207L133.672 94.0215C138.269 98.2408 145.048 104.555 154.067 112.965C163.057 121.403 169.953 128.009 174.724 132.781C179.496 137.582 185.256 143.984 191.948 152.015C198.64 160.047 203.732 167.438 207.165 174.131C210.598 180.823 213.682 188.884 216.359 198.253C219.035 207.652 220.374 217.488 220.374 227.818H227.851V55H284.12C284.12 61.5181 284.294 70.8879 284.702 83.1385C285.08 95.3891 285.371 104.875 285.575 111.568C285.749 118.261 285.371 126.874 284.44 137.408C283.48 147.942 281.851 156.759 279.552 163.83C277.254 170.93 273.704 178.757 268.933 187.37C264.132 195.984 258.109 203.724 250.836 210.62L256.015 215.8L378.328 94.0506L417.955 133.683C413.736 138.281 407.423 145.09 399.014 154.081C390.577 163.073 383.973 169.969 379.201 174.742C374.4 179.543 368 185.275 359.97 191.968C351.939 198.661 344.549 203.753 337.858 207.187C331.166 210.62 323.107 213.705 313.738 216.382C304.341 219.059 294.507 220.398 284.178 220.398V227.876H457V284.153C450.483 284.153 441.114 284.357 428.865 284.735C416.617 285.113 407.132 285.404 400.44 285.608C393.748 285.812 385.107 285.404 374.604 284.444C364.072 283.484 355.169 281.854 347.895 279.555C340.622 277.257 332.766 273.736 324.358 268.934C315.92 264.162 308.094 258.11 300.82 250.835L296.223 256.015L417.955 378.346L417.926 378.317Z" fill="white"/>
</svg>
